<svg xmlns="http://www.w3.org/2000/svg" width="600" height="400" viewBox="0 0 2400 1600"><defs><clipPath id="a"><path d="M0 0h2400v1600H0z"/></clipPath></defs><path clip-path="url(#a)" d="M0 1600h2400V0H0z" fill="#fff" fill-rule="evenodd"/><path clip-path="url(#a)" d="M205.121 1423.18H2352.76V47.244H205.121z" fill="#fff" fill-rule="evenodd"/><defs><clipPath id="b"><path d="M205 47h2149v1377H205z"/></clipPath></defs><path clip-path="url(#b)" stroke="#000" stroke-width="2" stroke-opacity=".1" fill="none" d="M265.903 1423.18V47.244M771.915 1423.18V47.244M1277.93 1423.18V47.244M1783.94 1423.18V47.244M2289.95 1423.18V47.244"/><path clip-path="url(#a)" stroke="#000" stroke-width="4" fill="none" d="M205.121 1423.18H2352.76M265.903 1423.18v-16.51M771.915 1423.18v-16.51M1277.93 1423.18v-16.51M1783.94 1423.18v-16.51M2289.95 1423.18v-16.51"/><path clip-path="url(#a)" d="M265.903 1452.37q-3.611 0-5.44 3.57-1.805 3.54-1.805 10.67 0 7.1 1.805 10.67 1.829 3.54 5.44 3.54 3.634 0 5.44-3.54 1.829-3.57 1.829-10.67 0-7.13-1.829-10.67-1.806-3.57-5.44-3.57m0-3.7q5.81 0 8.866 4.6 3.078 4.59 3.078 13.34 0 8.72-3.078 13.33-3.056 4.58-8.866 4.58t-8.889-4.58q-3.055-4.61-3.055-13.33 0-8.75 3.055-13.34 3.079-4.6 8.889-4.6zM735.607 1479.92h16.319v3.93h-21.944v-3.93q2.662-2.76 7.245-7.39 4.607-4.65 5.787-5.99 2.246-2.53 3.125-4.26.903-1.76.903-3.45 0-2.76-1.944-4.49-1.922-1.74-5.023-1.74-2.199 0-4.653.77-2.431.76-5.208 2.31v-4.72q2.824-1.14 5.277-1.71 2.454-.58 4.491-.58 5.37 0 8.565 2.68 3.194 2.69 3.194 7.18 0 2.13-.81 4.05-.787 1.9-2.893 4.49-.579.67-3.681 3.89-3.102 3.19-8.75 8.96zM761.787 1449.29h18.357v3.94H766.07v8.47q1.018-.35 2.037-.51 1.018-.19 2.037-.19 5.787 0 9.167 3.18 3.379 3.17 3.379 8.58 0 5.58-3.472 8.68-3.472 3.08-9.792 3.08-2.176 0-4.444-.37-2.245-.37-4.653-1.11v-4.7q2.083 1.14 4.306 1.69 2.222.56 4.699.56 4.004 0 6.342-2.11 2.338-2.1 2.338-5.72 0-3.61-2.338-5.71-2.338-2.11-6.342-2.11-1.875 0-3.75.42-1.852.41-3.797 1.29v-17.36zM801.903 1452.37q-3.611 0-5.44 3.57-1.805 3.54-1.805 10.67 0 7.1 1.805 10.67 1.829 3.54 5.44 3.54 3.634 0 5.44-3.54 1.829-3.57 1.829-10.67 0-7.13-1.829-10.67-1.806-3.57-5.44-3.57m0-3.7q5.81 0 8.866 4.6 3.078 4.59 3.078 13.34 0 8.72-3.078 13.33-3.056 4.58-8.866 4.58t-8.889-4.58q-3.055-4.61-3.055-13.33 0-8.75 3.055-13.34 3.079-4.6 8.889-4.6zM1237.54 1449.29h18.36v3.94h-14.07v8.47q1.02-.35 2.03-.51 1.02-.19 2.04-.19 5.79 0 9.17 3.18 3.38 3.17 3.38 8.58 0 5.58-3.47 8.68-3.48 3.08-9.8 3.08-2.17 0-4.44-.37-2.25-.37-4.65-1.11v-4.7q2.08 1.14 4.3 1.69 2.22.56 4.7.56 4.01 0 6.34-2.11 2.34-2.1 2.34-5.72 0-3.61-2.34-5.71-2.33-2.11-6.34-2.11-1.87 0-3.75.42-1.85.41-3.8 1.29v-17.36zM1277.66 1452.37q-3.61 0-5.44 3.57-1.81 3.54-1.81 10.67 0 7.1 1.81 10.67 1.83 3.54 5.44 3.54 3.63 0 5.44-3.54 1.83-3.57 1.83-10.67 0-7.13-1.83-10.67-1.81-3.57-5.44-3.57m0-3.7q5.81 0 8.87 4.6 3.07 4.59 3.07 13.34 0 8.72-3.07 13.33-3.06 4.58-8.87 4.58-5.81 0-8.89-4.58-3.05-4.61-3.05-13.33 0-8.75 3.05-13.34 3.08-4.6 8.89-4.6zM1307.82 1452.37q-3.61 0-5.44 3.57-1.8 3.54-1.8 10.67 0 7.1 1.8 10.67 1.83 3.54 5.44 3.54 3.64 0 5.44-3.54 1.83-3.57 1.83-10.67 0-7.13-1.83-10.67-1.8-3.57-5.44-3.57m0-3.7q5.81 0 8.87 4.6 3.08 4.59 3.08 13.34 0 8.72-3.08 13.33-3.06 4.58-8.87 4.58-5.81 0-8.89-4.58-3.05-4.61-3.05-13.33 0-8.75 3.05-13.34 3.08-4.6 8.89-4.6zM1742.21 1449.29h22.23v1.99l-12.55 32.57h-4.88l11.8-30.62h-16.6v-3.94zM1773.6 1449.29h18.36v3.94h-14.08v8.47q1.02-.35 2.04-.51 1.02-.19 2.04-.19 5.79 0 9.17 3.18 3.38 3.17 3.38 8.58 0 5.58-3.48 8.68-3.47 3.08-9.79 3.08-2.17 0-4.44-.37-2.25-.37-4.66-1.11v-4.7q2.09 1.14 4.31 1.69 2.22.56 4.7.56 4 0 6.34-2.11 2.34-2.1 2.34-5.72 0-3.61-2.34-5.71-2.34-2.11-6.34-2.11-1.88 0-3.75.42-1.85.41-3.8 1.29v-17.36zM1813.72 1452.37q-3.61 0-5.44 3.57-1.81 3.54-1.81 10.67 0 7.1 1.81 10.67 1.83 3.54 5.44 3.54 3.63 0 5.44-3.54 1.83-3.57 1.83-10.67 0-7.13-1.83-10.67-1.81-3.57-5.44-3.57m0-3.7q5.81 0 8.86 4.6 3.08 4.59 3.08 13.34 0 8.72-3.08 13.33-3.05 4.58-8.86 4.58t-8.89-4.58q-3.06-4.61-3.06-13.33 0-8.75 3.06-13.34 3.08-4.6 8.89-4.6zM2234.48 1479.92h7.63v-26.37l-8.31 1.67v-4.26l8.27-1.67h4.67v30.63h7.64v3.93h-19.9v-3.93zM2273.83 1452.37q-3.61 0-5.44 3.57-1.81 3.54-1.81 10.67 0 7.1 1.81 10.67 1.83 3.54 5.44 3.54 3.63 0 5.44-3.54 1.83-3.57 1.83-10.67 0-7.13-1.83-10.67-1.81-3.57-5.44-3.57m0-3.7q5.81 0 8.86 4.6 3.08 4.59 3.08 13.34 0 8.72-3.08 13.33-3.05 4.58-8.86 4.58t-8.89-4.58q-3.06-4.61-3.06-13.33 0-8.75 3.06-13.34 3.08-4.6 8.89-4.6zM2303.99 1452.37q-3.61 0-5.44 3.57-1.81 3.54-1.81 10.67 0 7.1 1.81 10.67 1.83 3.54 5.44 3.54 3.63 0 5.44-3.54 1.83-3.57 1.83-10.67 0-7.13-1.83-10.67-1.81-3.57-5.44-3.57m0-3.7q5.81 0 8.86 4.6 3.08 4.59 3.08 13.34 0 8.72-3.08 13.33-3.05 4.58-8.86 4.58t-8.89-4.58q-3.06-4.61-3.06-13.33 0-8.75 3.06-13.34 3.08-4.6 8.89-4.6zM2334.15 1452.37q-3.61 0-5.44 3.57-1.8 3.54-1.8 10.67 0 7.1 1.8 10.67 1.83 3.54 5.44 3.54 3.64 0 5.44-3.54 1.83-3.57 1.83-10.67 0-7.13-1.83-10.67-1.8-3.57-5.44-3.57m0-3.7q5.81 0 8.87 4.6 3.08 4.59 3.08 13.34 0 8.72-3.08 13.33-3.06 4.58-8.87 4.58-5.81 0-8.89-4.58-3.05-4.61-3.05-13.33 0-8.75 3.05-13.34 3.08-4.6 8.89-4.6zM1101.49 1520.52h9.58l12.13 32.34 12.19-32.34h9.58v47.52h-6.27v-41.72l-12.25 32.59h-6.46l-12.26-32.59v41.72h-6.24v-47.52zM1171.29 1536.5q-4.71 0-7.44 3.69-2.74 3.66-2.74 10.06t2.7 10.09q2.74 3.66 7.48 3.66 4.68 0 7.42-3.69t2.74-10.06q0-6.33-2.74-10.02-2.74-3.73-7.42-3.73m0-4.96q7.64 0 12 4.96 4.36 4.97 4.36 13.75 0 8.75-4.36 13.75-4.36 4.97-12 4.97-7.67 0-12.03-4.97-4.33-5-4.33-13.75 0-8.78 4.33-13.75 4.36-4.96 12.03-4.96zM1220.82 1537.81v-19.29h5.86v49.52h-5.86v-5.34q-1.85 3.18-4.68 4.74-2.8 1.53-6.75 1.53-6.46 0-10.53-5.16-4.04-5.16-4.04-13.56t4.04-13.56q4.07-5.15 10.53-5.15 3.95 0 6.75 1.56 2.83 1.52 4.68 4.71m-19.96 12.44q0 6.46 2.64 10.15 2.68 3.67 7.33 3.67 4.64 0 7.32-3.67 2.67-3.69 2.67-10.15 0-6.46-2.67-10.12-2.68-3.69-7.32-3.69-4.65 0-7.33 3.69-2.64 3.66-2.64 10.12zM1269.23 1548.76v2.86h-26.93q.39 6.05 3.63 9.23 3.28 3.15 9.11 3.15 3.37 0 6.52-.83 3.18-.82 6.3-2.48v5.54q-3.15 1.34-6.46 2.04t-6.71.7q-8.53 0-13.53-4.97-4.97-4.96-4.97-13.43 0-8.75 4.71-13.88 4.75-5.15 12.77-5.15 7.19 0 11.36 4.64 4.2 4.62 4.2 12.58m-5.86-1.72q-.06-4.81-2.7-7.67-2.61-2.87-6.94-2.87-4.9 0-7.86 2.77-2.93 2.77-3.38 7.8l20.88-.03zM1278.84 1518.52h5.86v49.52h-5.86v-49.52zM1346.41 1522.08v6.27q-3.66-1.75-6.9-2.61-3.25-.86-6.27-.86-5.25 0-8.12 2.04-2.83 2.04-2.83 5.79 0 3.16 1.88 4.78 1.91 1.59 7.19 2.58l3.88.79q7.2 1.37 10.6 4.84 3.44 3.44 3.44 9.23 0 6.91-4.65 10.47-4.61 3.57-13.56 3.57-3.37 0-7.19-.77-3.79-.76-7.86-2.26v-6.62q3.91 2.2 7.67 3.31 3.76 1.12 7.38 1.12 5.51 0 8.5-2.17 2.99-2.16 2.99-6.17 0-3.5-2.16-5.48-2.13-1.97-7.03-2.96l-3.92-.76q-7.19-1.43-10.41-4.49-3.21-3.05-3.21-8.5 0-6.3 4.42-9.93 4.46-3.63 12.26-3.63 3.34 0 6.81.61 3.47.6 7.09 1.81zM1364.84 1522.27v10.13h12.07v4.55h-12.07v19.35q0 4.36 1.18 5.6 1.21 1.24 4.87 1.24h6.02v4.9h-6.02q-6.78 0-9.36-2.51-2.57-2.55-2.57-9.23v-19.35h-4.3v-4.55h4.3v-10.13h5.88zM1415.1 1548.76v2.86h-26.93q.39 6.05 3.63 9.23 3.28 3.15 9.11 3.15 3.37 0 6.52-.83 3.18-.82 6.3-2.48v5.54q-3.15 1.34-6.46 2.04t-6.71.7q-8.53 0-13.53-4.97-4.97-4.96-4.97-13.43 0-8.75 4.71-13.88 4.75-5.15 12.77-5.15 7.19 0 11.36 4.64 4.2 4.62 4.2 12.58m-5.86-1.72q-.06-4.81-2.7-7.67-2.61-2.87-6.94-2.87-4.9 0-7.86 2.77-2.93 2.77-3.38 7.8l20.88-.03zM1430.38 1562.7v18.9h-5.89v-49.2h5.89v5.41q1.84-3.19 4.65-4.71 2.83-1.56 6.74-1.56 6.5 0 10.54 5.15 4.07 5.16 4.07 13.56t-4.07 13.56q-4.04 5.16-10.54 5.16-3.91 0-6.74-1.53-2.81-1.56-4.65-4.74m19.92-12.45q0-6.46-2.67-10.12-2.64-3.69-7.29-3.69t-7.32 3.69q-2.64 3.66-2.64 10.12 0 6.46 2.64 10.15 2.67 3.67 7.32 3.67t7.29-3.67q2.67-3.69 2.67-10.15z" fill-rule="evenodd"/><path clip-path="url(#b)" stroke="#000" stroke-width="2" stroke-opacity=".1" fill="none" d="M205.121 1384.24H2352.76M205.121 1167.9H2352.76M205.121 951.554H2352.76M205.121 735.212H2352.76M205.121 518.87H2352.76M205.121 302.528H2352.76M205.121 86.186H2352.76"/><path clip-path="url(#a)" stroke="#000" stroke-width="4" fill="none" d="M205.121 1423.18V47.244M205.121 1384.24h25.772M205.121 1167.9h25.772M205.121 951.554h25.772M205.121 735.212h25.772M205.121 518.87h25.772M205.121 302.528h25.772M205.121 86.186h25.772"/><path clip-path="url(#a)" d="M157.177 1370.04q-3.611 0-5.44 3.56-1.806 3.54-1.806 10.67 0 7.11 1.806 10.67 1.829 3.55 5.44 3.55 3.634 0 5.439-3.55 1.829-3.56 1.829-10.67 0-7.13-1.829-10.67-1.805-3.56-5.439-3.56m0-3.71q5.81 0 8.865 4.61 3.079 4.58 3.079 13.33 0 8.73-3.079 13.34-3.055 4.58-8.865 4.58-5.811 0-8.889-4.58-3.056-4.61-3.056-13.34 0-8.75 3.056-13.33 3.078-4.61 8.889-4.61zM117.825 1181.24h7.639v-26.36l-8.31 1.66v-4.26l8.264-1.66h4.675v30.62h7.639v3.94h-19.907v-3.94zM157.177 1153.69q-3.611 0-5.44 3.57-1.806 3.54-1.806 10.67 0 7.11 1.806 10.67 1.829 3.54 5.44 3.54 3.634 0 5.439-3.54 1.829-3.56 1.829-10.67 0-7.13-1.829-10.67-1.805-3.57-5.439-3.57m0-3.7q5.81 0 8.865 4.61 3.079 4.58 3.079 13.33 0 8.73-3.079 13.33-3.055 4.59-8.865 4.59-5.811 0-8.889-4.59-3.056-4.6-3.056-13.33 0-8.75 3.056-13.33 3.078-4.61 8.889-4.61zM121.043 964.899h16.319v3.935h-21.944v-3.935q2.662-2.755 7.245-7.384 4.606-4.653 5.787-5.996 2.245-2.523 3.125-4.259.903-1.759.903-3.449 0-2.755-1.945-4.491-1.921-1.736-5.023-1.736-2.199 0-4.653.764-2.43.764-5.208 2.315v-4.722q2.824-1.135 5.278-1.713 2.453-.579 4.491-.579 5.37 0 8.564 2.685 3.195 2.685 3.195 7.176 0 2.13-.81 4.051-.788 1.898-2.894 4.491-.579.671-3.681 3.889-3.101 3.194-8.749 8.958zM157.177 937.353q-3.611 0-5.44 3.565-1.806 3.541-1.806 10.671 0 7.106 1.806 10.671 1.829 3.542 5.44 3.542 3.634 0 5.439-3.542 1.829-3.565 1.829-10.671 0-7.13-1.829-10.671-1.805-3.565-5.439-3.565m0-3.704q5.81 0 8.865 4.607 3.079 4.583 3.079 13.333 0 8.727-3.079 13.333-3.055 4.583-8.865 4.583-5.811 0-8.889-4.583-3.056-4.606-3.056-13.333 0-8.75 3.056-13.333 3.078-4.607 8.889-4.607zM131.181 733.858q3.357.717 5.232 2.986 1.898 2.268 1.898 5.602 0 5.115-3.519 7.916-3.518 2.801-9.999 2.801-2.176 0-4.491-.44-2.292-.416-4.746-1.273v-4.514q1.945 1.135 4.26 1.713 2.314.579 4.838.579 4.398 0 6.689-1.736 2.315-1.736 2.315-5.046 0-3.056-2.153-4.769-2.129-1.736-5.949-1.736h-4.027v-3.842h4.213q3.449 0 5.277-1.366 1.829-1.389 1.829-3.982 0-2.662-1.898-4.074-1.875-1.435-5.394-1.435-1.921 0-4.12.417-2.199.416-4.838 1.296v-4.167q2.662-.74 4.977-1.111 2.338-.37 4.398-.37 5.324 0 8.426 2.431 3.102 2.407 3.102 6.527 0 2.871-1.644 4.861-1.643 1.968-4.676 2.732zM157.177 721.011q-3.611 0-5.44 3.564-1.806 3.542-1.806 10.672 0 7.106 1.806 10.671 1.829 3.542 5.44 3.542 3.634 0 5.439-3.542 1.829-3.565 1.829-10.671 0-7.13-1.829-10.672-1.805-3.564-5.439-3.564m0-3.704q5.81 0 8.865 4.606 3.079 4.584 3.079 13.334 0 8.726-3.079 13.333-3.055 4.583-8.865 4.583-5.811 0-8.889-4.583-3.056-4.607-3.056-13.333 0-8.75 3.056-13.334 3.078-4.606 8.889-4.606zM129.862 505.664l-11.806 18.449h11.806v-18.449m-1.227-4.074h5.88v22.523h4.93v3.889h-4.93v8.148h-4.653v-8.148H114.26v-4.514l14.375-21.898zM157.177 504.669q-3.611 0-5.44 3.564-1.806 3.542-1.806 10.672 0 7.106 1.806 10.671 1.829 3.541 5.44 3.541 3.634 0 5.439-3.541 1.829-3.565 1.829-10.671 0-7.13-1.829-10.672-1.805-3.564-5.439-3.564m0-3.704q5.81 0 8.865 4.606 3.079 4.584 3.079 13.334 0 8.726-3.079 13.333-3.055 4.583-8.865 4.583-5.811 0-8.889-4.583-3.056-4.607-3.056-13.333 0-8.75 3.056-13.334 3.078-4.606 8.889-4.606zM117.061 285.248h18.356v3.935h-14.074v8.472q1.019-.347 2.037-.509 1.019-.185 2.038-.185 5.787 0 9.166 3.171 3.38 3.171 3.38 8.588 0 5.579-3.472 8.68-3.473 3.079-9.792 3.079-2.176 0-4.445-.37-2.245-.371-4.652-1.111v-4.699q2.083 1.134 4.305 1.689 2.222.556 4.699.556 4.005 0 6.343-2.107 2.338-2.106 2.338-5.717 0-3.611-2.338-5.718-2.338-2.106-6.343-2.106-1.875 0-3.75.416-1.851.417-3.796 1.297v-17.361zM157.177 288.326q-3.611 0-5.44 3.565-1.806 3.542-1.806 10.671 0 7.107 1.806 10.672 1.829 3.541 5.44 3.541 3.634 0 5.439-3.541 1.829-3.565 1.829-10.672 0-7.129-1.829-10.671-1.805-3.565-5.439-3.565m0-3.703q5.81 0 8.865 4.606 3.079 4.584 3.079 13.333 0 8.727-3.079 13.334-3.055 4.583-8.865 4.583-5.811 0-8.889-4.583-3.056-4.607-3.056-13.334 0-8.749 3.056-13.333 3.078-4.606 8.889-4.606zM127.593 84.322q-3.148 0-5 2.153-1.828 2.153-1.828 5.903 0 3.727 1.828 5.903 1.852 2.152 5 2.152 3.149 0 4.977-2.153 1.852-2.175 1.852-5.902 0-3.75-1.852-5.903-1.828-2.153-4.977-2.153m9.283-14.652v4.259q-1.759-.834-3.565-1.273-1.782-.44-3.542-.44-4.629 0-7.083 3.125-2.431 3.125-2.778 9.444 1.366-2.014 3.426-3.078 2.06-1.088 4.537-1.088 5.209 0 8.218 3.17 3.032 3.149 3.032 8.589 0 5.324-3.148 8.541-3.148 3.218-8.38 3.218-5.995 0-9.166-4.583-3.171-4.607-3.171-13.334 0-8.194 3.888-13.055 3.889-4.884 10.44-4.884 1.759 0 3.542.347 1.805.347 3.75 1.042zM157.177 71.984q-3.611 0-5.44 3.565-1.806 3.542-1.806 10.671 0 7.107 1.806 10.672 1.829 3.541 5.44 3.541 3.634 0 5.439-3.541 1.829-3.565 1.829-10.672 0-7.13-1.829-10.67-1.805-3.566-5.439-3.566m0-3.703q5.81 0 8.865 4.606 3.079 4.583 3.079 13.333 0 8.727-3.079 13.334-3.055 4.583-8.865 4.583-5.811 0-8.889-4.583-3.056-4.607-3.056-13.334 0-8.75 3.056-13.333 3.078-4.606 8.889-4.606zM16.484 1026.94v-8.66l39.754-21.071H16.484v-6.239h47.52v8.658L24.25 1020.7h39.754v6.24h-47.52zM49.936 979.034h-21.58v-5.856h21.357q5.06 0 7.607-1.973 2.515-1.974 2.515-5.92 0-4.743-3.024-7.48-3.024-2.769-8.244-2.769h-20.21v-5.857h35.647v5.857H58.53q3.246 2.132 4.838 4.965 1.56 2.801 1.56 6.525 0 6.143-3.82 9.326-3.82 3.182-11.172 3.182m-22.44-14.736zM35.2 909.362q-3.947-2.196-5.825-5.252-1.878-3.055-1.878-7.193 0-5.57 3.915-8.594 3.883-3.024 11.076-3.024h21.516v5.889H42.68q-5.124 0-7.607 1.814-2.483 1.814-2.483 5.538 0 4.552 3.024 7.193 3.024 2.642 8.244 2.642h20.147v5.888H42.68q-5.156 0-7.607 1.815-2.483 1.814-2.483 5.601 0 4.488 3.056 7.13 3.024 2.642 8.212 2.642h20.147v5.888H28.356v-5.888h5.538q-3.278-2.005-4.838-4.806t-1.56-6.652q0-3.884 1.974-6.589 1.974-2.737 5.73-4.042zM46.212 848.028q-6.461 0-10.122 2.674-3.692 2.642-3.692 7.289t3.692 7.32q3.66 2.642 10.122 2.642 6.461 0 10.153-2.642 3.66-2.673 3.66-7.32t-3.66-7.289q-3.692-2.674-10.153-2.674m-12.445 19.925q-3.183-1.846-4.71-4.647-1.56-2.833-1.56-6.748 0-6.493 5.156-10.535 5.156-4.074 13.559-4.074 8.403 0 13.559 4.074 5.156 4.042 5.156 10.535 0 3.915-1.528 6.748-1.56 2.801-4.742 4.647h5.347v5.888H14.48v-5.888h19.288zM44.716 801.75h2.865v26.926q6.047-.381 9.23-3.628 3.15-3.278 3.15-9.103 0-3.374-.827-6.525-.827-3.183-2.482-6.302h5.538q1.337 3.151 2.037 6.461.7 3.311.7 6.716 0 8.53-4.965 13.527-4.965 4.966-13.432 4.966-8.753 0-13.877-4.711-5.156-4.743-5.156-12.763 0-7.194 4.647-11.363 4.615-4.201 12.572-4.201m-1.719 5.856q-4.806.064-7.67 2.705-2.865 2.61-2.865 6.939 0 4.902 2.77 7.862 2.768 2.928 7.797 3.373l-.032-20.879zM33.83 771.481q-.572.986-.827 2.164-.286 1.146-.286 2.546 0 4.965 3.246 7.639 3.215 2.642 9.262 2.642h18.78v5.888H28.355v-5.888h5.538q-3.246-1.846-4.806-4.806-1.591-2.96-1.591-7.194 0-.604.095-1.336.064-.732.223-1.624l6.016-.031zM32.462 730.804q0 4.71 3.692 7.448 3.66 2.737 10.058 2.737 6.397 0 10.09-2.706 3.66-2.737 3.66-7.479 0-4.679-3.692-7.416-3.692-2.738-10.058-2.738-6.334 0-10.026 2.738-3.724 2.737-3.724 7.416m-4.965 0q0-7.639 4.965-12 4.965-4.36 13.75-4.36 8.753 0 13.75 4.36 4.965 4.361 4.965 12 0 7.67-4.965 12.031-4.997 4.329-13.75 4.329-8.785 0-13.75-4.329-4.965-4.361-4.965-12.031zM14.479 686.689h4.87v5.602q0 3.151 1.273 4.393 1.273 1.209 4.583 1.209h3.151v-9.644h4.552v9.644h31.096v5.888H32.908v5.602h-4.552v-5.602h-2.482q-5.952 0-8.658-2.769-2.737-2.769-2.737-8.784v-5.539zM22.818 644.93l23.649 8.721v-17.474l-23.649 8.753m-6.334 3.629v-7.289l47.52-18.11v6.684l-12.19 4.328v21.421l12.19 4.329v6.779l-47.52-18.142zM45.766 593.018q-6.365 0-9.866 2.642-3.502 2.61-3.502 7.352 0 4.711 3.502 7.353 3.5 2.609 9.866 2.609 6.334 0 9.835-2.609 3.502-2.642 3.502-7.353 0-4.742-3.502-7.352-3.5-2.642-9.835-2.642m13.814-5.856q9.103 0 13.527 4.042 4.456 4.042 4.456 12.381 0 3.087-.477 5.825-.446 2.737-1.4 5.315h-5.698q1.4-2.578 2.069-5.093.668-2.514.668-5.124 0-5.761-3.023-8.625-2.992-2.865-9.072-2.865h-2.896q3.151 1.814 4.71 4.647 1.56 2.833 1.56 6.779 0 6.557-4.997 10.568-4.997 4.01-13.24 4.01-8.276 0-13.273-4.01-4.997-4.011-4.997-10.568 0-3.946 1.56-6.779 1.559-2.833 4.71-4.647h-5.41v-5.856H59.58zM44.716 544.607h2.865v26.927q6.047-.382 9.23-3.629 3.15-3.278 3.15-9.103 0-3.374-.827-6.525-.827-3.182-2.482-6.302h5.538q1.337 3.151 2.037 6.462.7 3.31.7 6.715 0 8.53-4.965 13.528-4.965 4.965-13.432 4.965-8.753 0-13.877-4.711-5.156-4.742-5.156-12.763 0-7.193 4.647-11.363 4.615-4.201 12.572-4.201m-1.719 5.856q-4.806.064-7.67 2.706-2.865 2.61-2.865 6.938 0 4.902 2.77 7.862 2.768 2.928 7.797 3.374l-.032-20.88zM42.488 505.362h21.516v5.857H42.68q-5.06 0-7.575 1.973-2.515 1.973-2.515 5.92 0 4.743 3.024 7.48t8.244 2.737h20.147v5.888H28.356v-5.888h5.538q-3.214-2.101-4.806-4.933-1.591-2.865-1.591-6.589 0-6.143 3.82-9.294 3.787-3.151 11.171-3.151zM18.235 487.888h10.121v-12.063h4.552v12.063h19.351q4.36 0 5.602-1.177 1.242-1.21 1.242-4.87v-6.016h4.901v6.016q0 6.779-2.514 9.358-2.547 2.578-9.23 2.578H32.907v4.296h-4.552v-4.296H18.235v-5.889zM29.407 445.397h5.538q-1.273 2.483-1.91 5.156-.637 2.674-.637 5.539 0 4.36 1.337 6.556 1.337 2.165 4.01 2.165 2.038 0 3.215-1.56 1.146-1.56 2.197-6.27l.445-2.005q1.337-6.239 3.788-8.849 2.419-2.641 6.78-2.641 4.964 0 7.86 3.946 2.897 3.915 2.897 10.79 0 2.865-.573 5.984-.54 3.087-1.655 6.525h-6.047q1.687-3.247 2.546-6.398.828-3.151.828-6.238 0-4.138-1.4-6.366-1.433-2.228-4.011-2.228-2.387 0-3.66 1.623-1.274 1.592-2.451 7.035l-.478 2.037q-1.146 5.442-3.5 7.861-2.388 2.419-6.526 2.419-5.029 0-7.766-3.565-2.737-3.564-2.737-10.121 0-3.247.477-6.111.478-2.865 1.433-5.284z" fill-rule="evenodd"/><path clip-path="url(#b)" stroke="#009af9" stroke-width="8" fill="none" d="M265.903 951.554l2.024-86.537 2.024-64.902 2.024-43.269 2.024-21.634h2.024l2.024 21.634 2.024 194.708 2.024 21.634 2.025 173.072 2.024 86.54 2.024 43.27h2.024l2.024 43.27 2.024 21.63 2.024-21.63 2.024-21.64 2.024 21.64h2.024l2.024-21.64 2.024 43.27h2.024l2.024 43.27h4.048l2.024-21.64h2.024l2.024-43.26 2.024 21.63h4.048l2.025 43.27H433.899l2.024-21.64h2.024l2.024-21.63 2.024-21.63 2.024-43.27h2.024l2.024-64.91 2.024-64.9 2.024-194.706 2.024-64.903 2.024-216.342 2.025-173.073 2.024-64.903 2.024-173.074 2.024-64.902h6.072l2.024-21.634 2.024 151.439h4.048l2.024 43.268 2.024 21.635 2.024 86.536 2.024 86.537 2.024 108.171h2.024l2.024 86.537 2.024 108.171 2.024 43.269h2.024l2.025 43.268 2.024 64.906 2.024 173.07 2.024 129.81h2.024l2.024 21.63h6.072l2.024 21.63 2.024 21.64H587.727l2.024-21.64 2.024-43.26 2.024-21.64 2.024 21.64 2.024-43.27 2.024-43.27 2.024-216.34 2.024-281.248 2.024-64.903 2.024-43.268 2.024-129.805 2.024-21.635 2.024-21.634 2.024-194.708 2.024-21.634 2.024-64.902h2.024l2.024-21.635 2.024 21.635 2.024-21.635 2.024 64.903 2.025-21.634 2.024 43.268 2.024 21.634 2.024 21.635 2.024 129.805h2.024l2.024 194.708 2.024 64.902 2.024 194.708 2.024 64.903 2.024 129.81h2.024l2.024 86.53 2.024 64.9 2.024 86.54h2.024l2.024 64.9 2.024 21.64H676.785l2.024-21.64 2.024-43.26h2.024l2.024 43.26 2.024-64.9 2.024 21.64 2.024-43.27h4.048l2.024-129.81 2.024-43.27 2.024-21.63 2.024-43.27 2.024-86.536 2.024 21.634 2.024-108.171 2.024-64.902 2.024-21.635 2.024-108.171 2.024-173.073 2.025-259.611 2.024-43.268h2.024l2.024-43.269 2.024-64.902h8.096l2.024 21.634 2.024 21.634 2.024-43.268H773.939l2.024 21.634 2.024-21.634H844.78l2.024 21.634h2.025l2.024-21.634H907.526l2.024 21.634 2.024-21.634H925.742l2.024 21.634h4.048l2.024 43.268 2.025 43.269 2.024-21.634h2.024l2.024-43.269h2.024l2.024-43.268H958.127l2.024 21.634h2.024l2.024-21.634h4.048l2.024 21.634 2.024 21.634h2.024l2.024 43.269 2.025-21.635 2.024 21.635 2.024 43.268 2.024 43.268 2.024 64.903 2.024-21.634 2.024 86.537 2.024 151.439 2.024 86.537 2.024 21.634 2.024 259.611 2.022 151.444 2.03 43.26 2.02-43.26 2.02 43.26 2.03 108.17 2.02 86.54 2.03-86.54 2.02 43.27 2.02 64.91 2.03 21.63 2.02 21.63h2.03l2.02 21.64h10.12l2.02-21.64h2.03l2.02 21.64H1095.76l2.03-21.64 2.02 21.64H1146.36l2.03-21.64 2.02-21.63h2.03l2.02 43.27H1176.72l2.03-21.64 2.02-21.63h4.05l2.02-21.63 2.03-43.27 2.02-64.91 2.03-64.9h2.02l2.02 43.27 2.03-194.708 2.02-151.439 2.03-108.171 2.02-173.074 2.02-43.268 2.03-64.903 2.02-129.805 2.03-173.074 2.02-21.634 2.03-21.634 2.02 21.634 2.02-21.634 2.03 21.634 2.02-43.268 2.03 21.634 2.02-21.634h6.07l2.03 21.634 2.02 21.634 2.02 21.634 2.03 129.806 2.02 64.902 2.03 21.634 2.02 86.537 2.02 151.44 2.03 108.171 2.02 194.708 2.03 237.974 2.02 86.54 2.02 21.63 2.03-21.63 2.02 64.9 2.03 86.54H1312.34l2.02-21.64 2.02-21.63 2.03 43.27H1330.55l2.03-21.64 2.02-43.26 2.02-64.91 2.03 21.64 2.02-43.27 2.03-21.64 2.02-21.63 2.02-64.9 2.03 21.63 2.02-21.63 2.03-86.54 2.02-86.536 2.02-324.513 2.03-21.634 2.02-194.708 2.03-21.634 2.02-64.903 2.02-21.634 2.03-108.171 2.02-64.903 2.03-43.268h8.09l2.03 21.634h2.02l2.02-21.634H1397.35l2.02 21.634 2.02 21.634 2.03-43.268h2.02l2.03 21.634 2.02-21.634H1421.63l2.03 21.634h2.02l2.03-21.634h8.09l2.03 21.634 2.02-21.634h8.1l2.02 21.634 2.02 21.634 2.03 43.269 2.02 21.634h2.03l2.02 43.268 2.02 108.171 2.03 21.634 2.02 21.635 2.03 194.707 2.02 129.806 2.02 173.073 2.03 64.903 2.02 151.436h2.03l2.02 21.64 2.03-43.27 2.02-43.27 2.02 108.17 2.03 43.27h2.02l2.03 129.81h2.02l2.02-21.64h4.05l2.03 21.64 2.02 21.63 2.02 21.63 2.03-21.63 2.02 21.63 2.03 21.64H1555.22l2.02-21.64 2.03 21.64h2.02l2.03-21.64h2.02l2.03-21.63 2.02 21.63h2.02l2.03-43.26 2.02-43.27 2.03-173.08 2.02-43.26 2.02-302.884 2.03 43.269 2.02-216.343 2.03-216.342h2.02l2.02-64.902 2.03-43.269h2.02l2.03-86.536 2.02-21.635 2.02 21.635 2.03-86.537H1619.99l2.02 21.634h2.03l2.02-21.634h18.22l2.02 21.634 2.03-21.634H1682.74l2.02 21.634 2.02-21.634H1698.93l2.02 21.634h4.05l2.02 43.268 2.03-43.268h2.02l2.03-21.634H1727.26l2.03 21.634 2.02 43.268 2.03-21.634 2.02 43.269 2.03-21.635 2.02 21.635 2.02-43.269h2.03l2.02 43.269 2.03 64.902 2.02-43.268 2.02-64.903 2.03 64.903h2.02l2.03 43.268h4.04l2.03 64.903 2.02 21.634 2.03 86.537 2.02 129.805 2.02 64.903 2.03 259.61 2.02 216.343 2.03-64.9 2.02-64.906 2.02 64.906h2.03l2.02 21.63h2.03l2.02 237.98h2.02l2.03 21.63 2.02-43.27 2.03 43.27 2.02 64.9 2.02-21.63h2.03l2.02 43.27h24.29l2.03-21.64h4.04l2.03 21.64H1873l2.02-21.64 2.02-43.26 2.03-21.64 2.02-108.17 2.03 86.54 2.02-216.34 2.02-64.908 2.03-237.976 2.02 64.903 2.03-64.903 2.02-43.268 2.02-151.44h2.03l2.02-173.073 2.03-64.903 2.02-108.171 2.02-43.268 2.03-43.269 2.02-43.268h4.05l2.03 21.634h2.02l2.02-21.634 2.03 21.634 2.02 64.903 2.03-21.635 2.02 21.635 2.02-43.269 2.03 21.634h4.05l2.02 64.903 2.02-21.634 2.03-21.634 2.02 21.634 2.03 86.537 2.02-21.635 2.02 108.171 2.03 151.44 2.02 129.805 2.03 86.537 2.02 86.537h2.02l2.03 129.805 2.02 64.906 2.03 21.63 2.02 151.44 2.02 64.9 2.03-43.27 2.02-21.63 2.03-43.27 2.02-86.53 2.02 151.43 2.03-108.17 2.02 86.54 2.03-129.8 2.02 86.53 2.02-43.27 2.03 43.27 2.02 108.17h2.03l2.02-21.63 2.03-21.64h2.02l2.02 43.27 2.03 43.27 2.02 43.27h2.03l2.02 43.27H2026.82l2.03-21.64h2.02l2.03-43.26 2.02 43.26h4.05l2.02-21.63 2.03 43.27H2065.28l2.02-21.64 2.03-21.63 2.02 43.27H2085.52l2.03-21.64h2.02l2.02-43.26 2.03-21.64 2.02-43.27 2.03-21.63 2.02-129.81 2.02 64.91h2.03l2.02-21.64 2.03-43.27 2.02-43.26 2.02-194.713 2.03 43.269 2.02-194.708h2.03l2.02-108.171 2.02-194.708 2.03-129.805h2.02l2.03-108.171 2.02-21.635 2.02-43.268 2.03-21.634H2148.27l2.02 21.634 2.02 86.537 2.03 129.805 2.02 108.171 2.03 129.805 2.02 86.537 2.02 43.269h2.03l2.02 216.342 2.03 43.268 2.02 108.176 2.03 43.26 2.02 129.81 2.02 43.27 2.03-21.64h4.05l2.02 64.91 2.02 43.26h2.03l2.02 21.64h24.29l2.02-21.64h2.03l2.02-43.26 2.03 64.9H2285.9l2.03-21.64 2.02 21.64"/><path clip-path="url(#b)" stroke="#e26f46" stroke-width="8" fill="none" d="M267.927 951.554l2.024 108.176 2.024 129.8 2.024 129.81 2.024 64.9H346.865l2.024-21.64 2.024-1276.414H397.466l2.024 21.634 2.024-21.634H413.659l2.024 21.634 2.024-21.634h4.048l2.024 21.634 2.024-21.634h6.072l2.024 21.634 2.024-21.634 2.024 21.634 2.024 21.634h2.024l2.024 21.634 2.024 43.269h2.024l2.024 64.902 2.024 64.903 2.024 194.708 2.024 64.902 2.025 216.343 2.024 173.073 2.024 64.902 2.024 194.71 2.024 64.9 2.024 21.64h2.024l2.024 43.26 2.024 21.64H496.644l2.024-21.64 2.025 21.64H524.981l2.024-21.64 2.024-1276.414H577.606l2.024 21.634h2.024l2.024-21.634H589.751l2.024 21.634 2.024 43.268 2.024 21.635 2.024-21.635 2.024 43.269 2.024 43.268 2.024 216.342 2.024 281.245 2.024 64.903 2.024 43.268 2.024 129.805 2.024 21.634 2.024 21.638 2.024 194.7 2.024 21.64 2.024 64.9 2.024 21.64 2.024 21.63 2.024-21.63 2.024 21.63 2.025-21.63 2.024 43.26 2.024 21.64H674.761l2.024-21.64 2.024-1276.414 2.024 21.634 2.024 43.268h2.024l2.024-43.268 2.024 64.903 2.024-21.635 2.024 43.269h4.048l2.024 129.805 2.024 43.268 2.024 21.635 2.024 43.268 2.024 86.537 2.024-21.634 2.024 108.171 2.024 86.537 2.024 108.171h2.024l2.025 173.073 2.024 259.612 2.024 43.27h2.024l2.024 43.27 2.024 64.9h8.096l2.024-21.64 2.024-21.63 2.024 43.27H846.804l2.025-21.64h2.024l2.024 21.64H909.55l2.024-21.64 2.024 21.64H939.911l2.024-21.64h2.024l2.024 21.64H960.151l2.024-21.64h2.024l2.024 21.64h16.193l2.024-21.64 2.024 21.64H1041.11l2.03-21.64 2.02-1276.414H1085.64l2.03 21.634 2.02-21.634h8.1l2.02 21.634 2.02-21.634h22.27l2.02 21.634 2.03-21.634H1142.32l2.02 21.634 2.02-21.634h2.03l2.02 21.634 2.03 21.634 2.02 21.634h2.02l2.03-64.902h20.24l2.02 21.634 2.03 21.634h4.04l2.03 43.269 2.02 21.634 2.03 64.902 2.02 64.903h2.02l2.03-43.268 2.02 194.707 2.03 151.44 2.02 108.171 2.02 173.074 2.03 43.268 2.02 64.906 2.03 129.8 2.02 173.08 2.03 21.63 2.02 21.63 2.02-21.63 2.03 21.63 2.02-21.63 2.03 43.27 2.02-21.64 2.02 21.64H1302.21l2.03-21.64 2.02-1276.414h4.05l2.03 21.634 2.02-21.634 2.02 21.634 2.03 21.634 2.02-43.268H1332.58l2.02 21.634 2.02 43.268 2.03 64.903 2.02-21.634 2.03 43.268 2.02 21.634 2.02 21.635 2.03 64.902 2.02-21.634 2.03 21.634 2.02 86.537 2.02 86.537 2.03 324.513 2.02 21.634 2.03 194.713 2.02 21.63 2.02 64.9 2.03 21.64 2.02 108.17 2.03 64.9 2.02 43.27h24.29l2.02-21.64 2.03-21.63 2.02 43.27h2.03l2.02-21.64 2.02 21.64H1423.66l2.02-21.64h2.03l2.02 21.64H1468.19l2.02-21.64 2.02-21.63 2.03 21.63 2.02-21.63 2.03 43.27H1528.91l2.02-21.64 2.03-1276.414H1557.24l2.03 21.634 2.02-21.634h2.03l2.02 21.634h2.03l2.02 21.634 2.02-21.634h2.03l2.02 43.268 2.03 64.903 2.02 151.439 2.02 43.269 2.03 302.879 2.02-43.269 2.03 216.342 2.02 216.339h2.02l2.03 64.91 2.02 43.26h2.03l2.02 86.54 2.02 21.64 2.03-21.64 2.02 86.54H1622.01l2.03-21.64h2.02l2.03 21.64H1700.95l2.03-21.64h4.04l2.03-21.63 2.02 21.63h2.03l2.02 21.64h30.36l2.03-21.64h2.02l2.02 21.64H1840.61l2.03-21.64 2.02-1276.414 2.02 21.634 2.03-21.634h26.31l2.02 21.634 2.03 43.268 2.02 21.635 2.03 108.171 2.02-86.537 2.02 216.342 2.03 64.902 2.02 237.977 2.03-64.903 2.02 64.903 2.02 43.268 2.03 151.44h2.02l2.03 173.074 2.02 64.9 2.02 108.17 2.03 43.27 2.02 43.27 2.03 43.27h32.38l2.03-21.64 2.02 21.64h28.34l2.02-21.64 2.02 21.64h16.2l2.02-21.64h2.03l2.02 21.64H2077.42l2.03-21.64 2.02-1276.414h6.08l2.02 21.634h2.02l2.03 43.268 2.02 21.635 2.03 43.268 2.02 21.634 2.02 151.44 2.03-86.537 2.02 21.634 2.03 21.634 2.02 43.269 2.02 43.268 2.03 216.342 2.02-64.903 2.03 194.708 2.02-21.634 2.02 108.171 2.03 194.713 2.02 129.8h2.03l2.02 108.17 2.02 21.64 2.03 43.26 2.02 21.64H2176.6l2.03-21.64 2.02 21.64H2235.3l2.02-21.64 2.03-1276.414H2287.93l2.02 21.634 2.02-21.634"/><path clip-path="url(#b)" stroke="#3da44d" stroke-width="8" fill="none" d="M267.927 951.554l2.024-21.634 2.024-64.903 2.024-86.537 2.024-43.268h2.024l2.024-21.634 2.024-194.708 2.025-21.634 2.024-173.074 2.024-86.537 2.024-43.268h2.024l2.024-43.269 2.024-21.634 2.024 21.634 2.024 21.635 2.024-21.635h2.024l2.024 21.635 2.024-43.269h2.024l2.024-43.268h4.048l2.024 21.634h2.024l2.024 43.268 2.024-21.634H328.649l2.024-43.268H346.865l2.024 21.634 2.024 1276.42H397.466l2.024-21.64 2.024 21.64H413.659l2.024-21.64 2.024 21.64h4.048l2.024-21.64 2.024 21.64h6.072l2.024-21.64 2.024 21.64h2.024l2.024-21.64 2.024 21.64H462.236l2.024-21.64h2.024l2.024-21.63h2.024l2.024-43.27h2.024l2.024-151.44h4.048l2.024-43.27 2.024-21.63 2.024-86.538 2.024-86.536 2.024-108.171h2.024l2.024-86.537 2.024-108.171 2.024-21.635 2.025-21.634 2.024-43.268 2.024-64.903 2.024-173.073 2.024-129.806h2.024l2.024-21.634h6.072l2.024-21.634 2.024-21.634h2.024l2.024 21.634 2.024 1276.42H577.606l2.024-21.64h2.024l2.024 21.64H622.135l2.024-21.64h6.072l2.025-43.26 2.024-21.64 2.024-64.9 2.024-21.64 2.024-21.63 2.024-129.8h2.024l2.024-194.713 2.024-64.902 2.024-194.708 2.024-64.903 2.024-129.805h2.024l2.024-86.537 2.024-64.903 2.024-86.536h2.024l2.024-64.903 2.024-21.634h6.073l2.024 21.634 2.024 1276.42H711.193l2.024-21.64 2.024-86.53 2.024 108.17H775.963l2.024-21.64 2.024 21.64H927.766l2.024-21.64h4.048l2.025-43.26 2.024-43.27 2.024 21.63 2.024 21.64 2.024 43.26 2.024-21.63 2.024 43.27H970.271l2.024-21.64 2.024-21.63h2.024l2.025-43.27 2.024 21.64 2.024-21.64 2.024-21.63 2.024-64.91 2.024-64.9 2.024 21.64 2.024-86.54 2.024-151.44 2.024-86.537 2.024-21.634 2.022-259.611 2.03-151.439 2.02-43.269 2.02 43.269 2.03-43.269 2.02-108.171 2.03-86.536 2.02 86.536 2.02-43.268 2.03-64.903 2.02-21.634 2.03-21.634h2.02l2.02-21.634h10.12l2.03 21.634h4.05l2.02 1276.42H1085.64l2.03-21.64 2.02 21.64H1124.1l2.02-21.64 2.03 21.64H1142.32l2.02-21.64 2.02 21.64h6.08l2.02-21.64 2.02-43.26 2.03 64.9h28.33l2.03-21.64 2.02 21.64H1237.45l2.02-21.64 2.02-21.63 2.03-21.63 2.02-129.81 2.03-64.9 2.02-21.64 2.02-86.53 2.03-151.443 2.02-108.171 2.03-194.708 2.02-237.976 2.02-86.537 2.03-21.634 2.02 21.634 2.03-64.902 2.02-86.537h32.38l2.03 21.634 2.02 1276.42h4.05l2.03-21.64 2.02 21.64H1383.18l2.02-21.64h2.02l2.03 21.64H1437.83l2.02-21.64 2.02 21.64h8.1l2.02-21.64 2.03-21.63 2.02-43.27 2.03-21.63h2.02l2.02-43.27 2.03-108.17 2.02-21.64 2.03-21.63 2.02-173.074 2.02-108.171 2.03-194.708 2.02-43.269 2.03-194.708h2.02l2.03-21.634 2.02 43.269 2.02 43.268 2.03-108.171 2.02-43.268h2.03l2.02-129.806h2.02l2.03 21.635h4.05l2.02-21.635 2.02-21.634 2.03-21.634 2.02 21.634 2.03-21.634 2.02-21.634H1528.91l2.02 21.634 2.03 1276.42H1575.46l2.03-21.64 2.02 21.64H1646.3l2.03-21.64 2.02 21.64H1684.76l2.02-21.64 2.03 21.64H1707.02l2.03-21.64 2.02 21.64h18.22l2.02-21.64 2.03-43.26 2.02 21.63 2.03-43.27 2.02 21.64 2.02-21.64 2.03 43.27h2.02l2.03-21.63 2.02-64.91 2.02 21.64 2.03 64.9 2.02-64.9h2.03l2.02-43.27h4.05l2.02-64.9 2.03-21.64 2.02-86.53 2.02-129.81 2.03-64.903 2.02-259.61 2.03-216.342 2.02 64.902 2.02 64.903 2.03-64.903h2.02l2.03-21.634h2.02l2.02-237.976h2.03l2.02-21.634 2.03 43.268 2.02-43.268 2.02-64.903 2.03 21.634h2.02l2.03-43.268h24.29l2.02 21.634h4.05l2.02-21.634 2.03 21.634 2.02 1276.42 2.02-21.64 2.03 21.64H1917.53l2.02-21.64h2.02l2.03 21.64 2.02-21.64 2.03-64.9 2.02 21.64 2.02-21.64 2.03 43.27 2.02-21.63h4.05l2.02-64.91 2.03 21.64 2.02 21.63h2.03l2.02-108.17 2.02 21.63 2.03-108.17 2.02-151.436 2.03-129.805 2.02-86.537 2.02-86.537h2.03l2.02-129.805 2.03-64.903 2.02-21.634 2.02-151.439 2.03-64.903 2.02 43.268 2.03 21.635 2.02 64.902 2.02 64.903 2.03-151.44 2.02 108.171 2.03-86.536 2.02 129.805 2.02-86.537 2.03 43.268 2.02-43.268 2.03-108.171 2.02 21.634 2.03 21.634h4.04l2.03-43.268 2.02-43.268 2.03-43.269h2.02l2.02-43.268H2028.85l2.02 21.634h2.03l2.02 43.268 2.02-43.268h4.05l2.03 21.634 2.02-43.268H2067.3l2.03 21.634 2.02 21.634 2.03-43.268h4.04l2.03 21.634 2.02 1276.42h18.22l2.02-21.64 2.03 21.64 2.02-21.64h6.07l2.03-21.63 2.02 21.63h2.03l2.02 21.64h30.36l2.02-21.64 2.03-86.53 2.02-129.81 2.03-108.17 2.02-129.804 2.02-86.537 2.03-43.269h2.02l2.03-216.342 2.02-43.268 2.03-108.171 2.02-43.269 2.02-129.805 2.03-21.634h6.07l2.02-64.903 2.03-43.268h2.02l2.03-21.634H2217.08l2.03 21.634h2.02l2.03 43.268 2.02-64.902h10.12l2.02 21.634 2.03 1276.42H2291.97"/><path clip-path="url(#a)" d="M276.709 335.029H746.63V93.109H276.709z" fill="#fff" fill-rule="evenodd"/><path clip-path="url(#a)" stroke="#000" stroke-width="4" fill="none" d="M276.709 335.029H746.63V93.109H276.709v241.92"/><path clip-path="url(#a)" stroke="#009af9" stroke-width="4" fill="none" d="M300.571 153.589h143.176"/><path clip-path="url(#a)" d="M489.855 137.443v4.56q-2.662-1.273-5.023-1.898-2.361-.625-4.56-.625-3.82 0-5.903 1.481-2.06 1.482-2.06 4.213 0 2.292 1.365 3.473 1.389 1.157 5.232 1.875l2.824.578q5.231.996 7.708 3.519 2.5 2.5 2.5 6.713 0 5.023-3.379 7.615-3.357 2.593-9.861 2.593-2.454 0-5.232-.556-2.754-.555-5.717-1.643v-4.815q2.847 1.597 5.578 2.407 2.732.811 5.371.811 4.004 0 6.18-1.574t2.176-4.491q0-2.546-1.574-3.982-1.551-1.435-5.116-2.152l-2.847-.556q-5.231-1.042-7.569-3.264-2.338-2.222-2.338-6.18 0-4.584 3.217-7.223 3.241-2.638 8.912-2.638 2.431 0 4.954.439 2.523.44 5.162 1.32zM499.045 144.943h4.259v25.926h-4.259v-25.926m0-10.093h4.259v5.394h-4.259v-5.394zM516.429 137.582v7.361h8.773v3.31h-8.773v14.074q0 3.171.856 4.074.88.903 3.542.903h4.375v3.565h-4.375q-4.931 0-6.806-1.829-1.875-1.852-1.875-6.713v-14.074h-3.124v-3.31h3.124v-7.361h4.283zM535.017 137.582v7.361h8.773v3.31h-8.773v14.074q0 3.171.856 4.074.88.903 3.542.903h4.375v3.565h-4.375q-4.931 0-6.806-1.829-1.875-1.852-1.875-6.713v-14.074h-3.125v-3.31h3.125v-7.361h4.283zM571.567 156.841v2.083h-19.583q.278 4.398 2.639 6.713 2.384 2.292 6.62 2.292 2.454 0 4.746-.602 2.315-.602 4.583-1.806v4.028q-2.292.972-4.699 1.482-2.407.509-4.884.509-6.204 0-9.838-3.611-3.611-3.611-3.611-9.769 0-6.365 3.426-10.092 3.449-3.75 9.282-3.75 5.232 0 8.264 3.379 3.055 3.357 3.055 9.144m-4.259-1.25q-.046-3.495-1.967-5.579-1.898-2.083-5.047-2.083-3.564 0-5.717 2.014-2.13 2.014-2.454 5.671l15.185-.023zM593.581 148.924q-.717-.416-1.574-.602-.833-.208-1.852-.208-3.611 0-5.555 2.361-1.921 2.338-1.921 6.736v13.658h-4.283v-25.926h4.283v4.028q1.342-2.362 3.495-3.496 2.153-1.157 5.231-1.157.44 0 .973.069.532.047 1.18.162l.023 4.375zM614.576 145.707v4.027q-1.805-.925-3.749-1.388-1.945-.463-4.028-.463-3.172 0-4.769.972-1.574.972-1.574 2.916 0 1.482 1.134 2.338 1.135.834 4.561 1.598l1.458.324q4.537.972 6.435 2.754 1.921 1.76 1.921 4.931 0 3.611-2.87 5.717-2.847 2.107-7.847 2.107-2.083 0-4.352-.417-2.245-.393-4.745-1.203v-4.399q2.361 1.227 4.652 1.852 2.292.602 4.537.602 3.01 0 4.63-1.018 1.62-1.042 1.62-2.917 0-1.736-1.18-2.662-1.158-.926-5.116-1.782l-1.481-.348q-3.959-.833-5.718-2.546-1.759-1.736-1.759-4.745 0-3.658 2.592-5.648 2.593-1.991 7.362-1.991 2.361 0 4.444.347 2.083.347 3.842 1.042z" fill-rule="evenodd"/><path clip-path="url(#a)" stroke="#e26f46" stroke-width="4" fill="none" d="M300.571 214.069h143.176"/><path clip-path="url(#a)" d="M467.61 196.789h4.676v34.56h-4.676v-34.56zM498.466 209.358V195.33h4.259v36.019h-4.259v-3.889q-1.343 2.315-3.403 3.449-2.037 1.111-4.907 1.111-4.699 0-7.662-3.75-2.94-3.75-2.94-9.861 0-6.111 2.94-9.861 2.963-3.75 7.662-3.75 2.87 0 4.907 1.134 2.06 1.111 3.403 3.426m-14.514 9.051q0 4.699 1.921 7.384 1.945 2.662 5.325 2.662 3.379 0 5.324-2.662 1.944-2.685 1.944-7.384t-1.944-7.361q-1.945-2.685-5.324-2.685-3.38 0-5.325 2.685-1.921 2.662-1.921 7.361zM533.674 217.321v2.083h-19.583q.278 4.398 2.639 6.713 2.384 2.292 6.62 2.292 2.454 0 4.745-.602 2.315-.602 4.584-1.806v4.028q-2.292.972-4.699 1.482-2.408.509-4.884.509-6.204 0-9.838-3.611-3.611-3.611-3.611-9.769 0-6.365 3.425-10.092 3.449-3.75 9.283-3.75 5.231 0 8.264 3.379 3.055 3.357 3.055 9.144m-4.259-1.25q-.046-3.495-1.968-5.579-1.898-2.083-5.046-2.083-3.565 0-5.718 2.014-2.129 2.014-2.453 5.671l15.185-.023zM562.216 215.701v15.648h-4.26v-15.51q0-3.68-1.435-5.509-1.435-1.828-4.305-1.828-3.449 0-5.44 2.199-1.991 2.199-1.991 5.995v14.653h-4.282v-25.926h4.282v4.028q1.528-2.338 3.588-3.496 2.083-1.157 4.792-1.157 4.467 0 6.759 2.778 2.292 2.754 2.292 8.125zM574.924 198.062v7.361h8.773v3.31h-8.773v14.074q0 3.171.856 4.074.88.903 3.542.903h4.375v3.565h-4.375q-4.93 0-6.805-1.829-1.875-1.852-1.875-6.713v-14.074h-3.125v-3.31h3.125v-7.361h4.282zM589.299 205.423h4.259v25.926h-4.259v-25.926m0-10.093h4.259v5.394h-4.259v-5.394zM615.595 195.33v3.542h-4.074q-2.292 0-3.194.926-.88.926-.88 3.333v2.292h7.014v3.31h-7.014v22.616h-4.282v-22.616h-4.075v-3.31h4.075v-1.806q0-4.328 2.013-6.296 2.014-1.991 6.389-1.991h4.028zM619.16 205.423h4.259v25.926h-4.259v-25.926m0-10.093h4.259v5.394h-4.259v-5.394zM654.507 217.321v2.083h-19.583q.277 4.398 2.638 6.713 2.385 2.292 6.621 2.292 2.454 0 4.745-.602 2.315-.602 4.583-1.806v4.028q-2.291.972-4.699 1.482-2.407.509-4.884.509-6.203 0-9.838-3.611-3.611-3.611-3.611-9.769 0-6.365 3.426-10.092 3.449-3.75 9.282-3.75 5.232 0 8.264 3.379 3.056 3.357 3.056 9.144m-4.259-1.25q-.047-3.495-1.968-5.579-1.898-2.083-5.046-2.083-3.565 0-5.718 2.014-2.129 2.014-2.454 5.671l15.186-.023zM676.521 209.404q-.718-.416-1.574-.602-.834-.208-1.852-.208-3.611 0-5.556 2.361-1.921 2.338-1.921 6.736v13.658h-4.282v-25.926h4.282v4.028q1.342-2.362 3.495-3.496 2.153-1.157 5.232-1.157.44 0 .972.069.532.047 1.18.162l.024 4.375zM697.516 206.187v4.027q-1.806-.925-3.75-1.388-1.945-.463-4.028-.463-3.171 0-4.768.972-1.574.972-1.574 2.916 0 1.482 1.134 2.338 1.134.834 4.56 1.598l1.458.324q4.537.972 6.435 2.754 1.922 1.76 1.922 4.931 0 3.611-2.871 5.717-2.847 2.107-7.847 2.107-2.083 0-4.352-.417-2.245-.393-4.745-1.203v-4.399q2.361 1.227 4.653 1.852 2.291.602 4.537.602 3.009 0 4.629-1.018 1.621-1.042 1.621-2.917 0-1.736-1.181-2.662-1.157-.926-5.115-1.782l-1.482-.348q-3.958-.833-5.718-2.546-1.759-1.736-1.759-4.745 0-3.658 2.593-5.648 2.592-1.991 7.361-1.991 2.361 0 4.444.347 2.084.347 3.843 1.042z" fill-rule="evenodd"/><path clip-path="url(#a)" stroke="#3da44d" stroke-width="4" fill="none" d="M300.571 274.549h143.176"/><path clip-path="url(#a)" d="M495.48 259.931v4.93q-2.361-2.199-5.046-3.287-2.662-1.088-5.672-1.088-5.926 0-9.074 3.634-3.148 3.612-3.148 10.463 0 6.829 3.148 10.463 3.148 3.611 9.074 3.611 3.01 0 5.672-1.088 2.685-1.088 5.046-3.287v4.885q-2.454 1.666-5.208 2.5-2.732.833-5.787.833-7.848 0-12.361-4.792-4.514-4.815-4.514-13.125 0-8.333 4.514-13.125 4.513-4.814 12.361-4.814 3.101 0 5.833.833 2.755.81 5.162 2.454zM524.068 276.181v15.648h-4.26v-15.51q0-3.68-1.435-5.509-1.435-1.828-4.305-1.828-3.449 0-5.44 2.199-1.991 2.199-1.991 5.995v14.653h-4.282V255.81h4.282v14.121q1.528-2.338 3.588-3.496 2.084-1.157 4.792-1.157 4.467 0 6.759 2.778 2.292 2.754 2.292 8.125zM554.739 277.801v2.083h-19.583q.277 4.398 2.638 6.713 2.385 2.292 6.621 2.292 2.454 0 4.745-.602 2.315-.602 4.583-1.806v4.028q-2.291.972-4.699 1.482-2.407.509-4.884.509-6.203 0-9.838-3.611-3.611-3.611-3.611-9.769 0-6.365 3.426-10.092 3.449-3.75 9.282-3.75 5.232 0 8.264 3.379 3.056 3.357 3.056 9.144m-4.259-1.25q-.047-3.495-1.968-5.579-1.898-2.083-5.046-2.083-3.565 0-5.718 2.014-2.129 2.014-2.453 5.671l15.185-.023zM573.512 278.796q-5.162 0-7.153 1.181-1.991 1.18-1.991 4.028 0 2.268 1.482 3.611 1.505 1.319 4.074 1.319 3.542 0 5.671-2.5 2.153-2.523 2.153-6.69v-.949h-4.236m8.495-1.759v14.792h-4.259v-3.936q-1.458 2.362-3.634 3.496-2.176 1.111-5.324 1.111-3.982 0-6.343-2.222-2.338-2.246-2.338-5.996 0-4.375 2.917-6.597 2.94-2.222 8.75-2.222h5.972v-.417q0-2.939-1.944-4.537-1.922-1.62-5.417-1.62-2.222 0-4.329.532-2.106.533-4.051 1.598v-3.936q2.338-.902 4.537-1.342 2.199-.463 4.283-.463 5.625 0 8.402 2.916 2.778 2.917 2.778 8.843zM594.993 258.542v7.361h8.773v3.31h-8.773v14.074q0 3.171.857 4.074.879.903 3.541.903h4.375v3.565h-4.375q-4.93 0-6.805-1.829-1.875-1.852-1.875-6.713v-14.074h-3.125v-3.31h3.125v-7.361h4.282zM631.544 277.801v2.083h-19.583q.278 4.398 2.639 6.713 2.384 2.292 6.62 2.292 2.454 0 4.745-.602 2.315-.602 4.584-1.806v4.028q-2.292.972-4.699 1.482-2.408.509-4.885.509-6.203 0-9.838-3.611-3.611-3.611-3.611-9.769 0-6.365 3.426-10.092 3.449-3.75 9.283-3.75 5.231 0 8.263 3.379 3.056 3.357 3.056 9.144m-4.259-1.25q-.047-3.495-1.968-5.579-1.898-2.083-5.046-2.083-3.565 0-5.718 2.014-2.129 2.014-2.453 5.671l15.185-.023zM653.558 269.884q-.718-.416-1.574-.602-.834-.208-1.852-.208-3.611 0-5.556 2.361-1.921 2.338-1.921 6.736v13.658h-4.282v-25.926h4.282v4.028q1.343-2.362 3.495-3.496 2.153-1.157 5.232-1.157.44 0 .972.069.532.047 1.181.162l.023 4.375zM674.553 266.667v4.027q-1.806-.925-3.75-1.388-1.944-.463-4.028-.463-3.171 0-4.768.972-1.574.972-1.574 2.916 0 1.482 1.134 2.338 1.134.834 4.56 1.598l1.458.324q4.537.972 6.436 2.754 1.921 1.76 1.921 4.931 0 3.611-2.87 5.717-2.848 2.107-7.848 2.107-2.083 0-4.351-.417-2.246-.393-4.746-1.203v-4.399q2.361 1.227 4.653 1.852 2.292.602 4.537.602 3.009 0 4.63-1.018 1.62-1.042 1.62-2.917 0-1.736-1.181-2.662-1.157-.926-5.115-1.782l-1.482-.348q-3.958-.833-5.717-2.546-1.76-1.736-1.76-4.745 0-3.658 2.593-5.648 2.593-1.991 7.361-1.991 2.361 0 4.444.347 2.084.347 3.843 1.042z" fill-rule="evenodd"/></svg>